<?xml version="1.0" standalone="no"?>
<!DOCTYPE svg PUBLIC "-//W3C//DTD SVG 20010904//EN"
 "http://www.w3.org/TR/2001/REC-SVG-20010904/DTD/svg10.dtd">
<svg version="1.0" xmlns="http://www.w3.org/2000/svg"
 width="700.000000pt" height="700.000000pt" viewBox="0 0 700.000000 700.000000"
 preserveAspectRatio="xMidYMid meet">
<metadata>
Created by potrace 1.14, written by Peter Selinger 2001-2017
</metadata>
<g transform="translate(0.000000,700.000000) scale(0.100000,-0.100000)"
fill="#000000" stroke="none">
<path d="M82 5551 l0 -1367 338 0 c302 -1 339 1 342 15 2 9 4 469 4 1024 -1
888 1 1007 14 1008 8 1 470 2 1025 3 l1010 1 0 340 0 340 -1366 2 -1367 1 0
-1367z"/>
<path d="M4186 6582 c1 -186 2 -339 3 -342 0 -3 461 -6 1023 -6 l1022 0 0
-1022 c0 -913 2 -1022 16 -1026 8 -2 161 -3 340 -2 l325 1 0 1365 0 1365
-1365 2 -1366 1 2 -336z"/>
<path d="M3418 5205 c-2 -1 -40 -5 -84 -9 -250 -19 -541 -122 -769 -270 -418
-273 -702 -728 -763 -1225 -14 -116 -7 -400 13 -491 3 -14 10 -48 16 -77 39
-200 185 -513 315 -672 59 -73 146 -170 175 -196 84 -75 170 -143 244 -190
396 -258 865 -340 1325 -234 99 23 211 58 224 70 6 5 16 9 23 9 22 0 202 92
283 144 388 250 671 663 756 1101 4 22 9 47 10 55 19 99 25 364 11 475 -67
538 -371 1003 -831 1274 -189 111 -414 191 -611 217 -16 2 -52 6 -80 10 -47 6
-252 13 -257 9z m-28 -703 l0 -468 -87 2 c-130 3 -414 15 -443 19 -14 2 -33 4
-42 4 -15 1 -14 9 7 89 80 300 203 540 353 689 63 62 168 132 200 133 9 0 12
-100 12 -468z m301 436 c121 -64 251 -219 338 -403 23 -50 46 -97 50 -105 18
-34 114 -361 108 -366 -10 -9 -295 -26 -482 -28 l-100 -1 -1 468 c0 398 2 467
14 467 8 0 41 -14 73 -32z m-737 -75 c-149 -195 -281 -473 -339 -712 l-18 -73
-66 7 c-36 4 -75 9 -86 11 -11 2 -40 7 -65 10 -25 3 -54 8 -65 10 -11 2 -36 7
-55 10 -19 3 -52 10 -72 15 l-37 9 41 73 c94 167 251 350 394 458 79 60 214
141 289 174 33 14 67 30 75 35 30 18 32 9 4 -27z m1356 -111 c154 -99 281
-218 391 -365 82 -109 145 -225 127 -232 -17 -6 -192 -42 -243 -50 -138 -22
-185 -26 -183 -18 6 23 -64 281 -108 397 -51 134 -113 259 -180 361 l-18 27
65 -32 c35 -18 102 -57 149 -88z m618 -809 c9 -16 17 -50 43 -168 21 -99 29
-291 16 -431 -13 -148 -80 -390 -108 -387 -8 1 -59 11 -114 23 -55 12 -154 30
-220 40 -66 9 -119 21 -118 26 2 17 14 129 22 219 9 107 7 419 -3 526 l-8 76
38 6 c22 4 57 9 79 12 80 12 251 46 300 59 66 19 63 19 73 -1z m-2803 -7 c19
-5 47 -10 110 -21 17 -3 53 -10 80 -15 48 -9 84 -14 192 -26 48 -6 51 -8 48
-33 -30 -239 -26 -516 11 -763 6 -44 19 -39 -166 -63 -69 -9 -164 -25 -211
-34 l-87 -18 -26 87 c-88 285 -94 557 -20 838 13 48 21 61 33 58 9 -2 25 -7
36 -10z m845 -101 c63 -4 176 -8 250 -10 74 -2 143 -4 153 -4 16 -1 17 -26 17
-371 l0 -370 -102 -1 c-120 0 -231 -4 -392 -14 l-115 -6 -6 48 c-4 26 -9 59
-11 73 -7 43 -18 241 -18 320 1 96 14 294 23 342 0 3 20 5 44 3 23 -2 94 -7
157 -10z m1254 0 c17 -44 24 -359 13 -533 -6 -94 -10 -131 -22 -202 -2 -14 -4
-29 -4 -34 -1 -5 -40 -6 -89 -2 -49 3 -176 9 -283 12 -107 2 -203 7 -215 9
-20 4 -20 9 -20 370 l-1 365 31 1 c17 0 78 2 136 4 125 3 394 16 397 19 10 9
52 2 57 -9z m-834 -1385 c0 -311 -3 -420 -12 -420 -30 0 -145 78 -208 142 -86
87 -147 178 -216 323 -48 102 -124 310 -124 342 0 7 11 13 28 13 41 1 267 12
269 14 1 0 60 2 132 4 l131 3 0 -421z m635 406 c28 -2 69 -4 93 -5 53 -1 53
-6 8 -142 -118 -360 -284 -588 -487 -673 l-35 -15 0 425 0 425 185 -6 c102 -3
209 -8 236 -9z m-1367 -150 c66 -199 162 -388 266 -526 63 -83 63 -82 4 -59
-260 101 -543 340 -690 581 -21 34 -37 62 -35 64 2 2 45 10 92 18 33 5 109 18
130 22 11 2 52 7 90 10 39 3 72 8 74 10 17 16 33 -12 69 -120z m1947 89 c28
-3 68 -10 90 -15 22 -5 52 -11 68 -15 15 -3 27 -9 27 -14 0 -11 -83 -135 -125
-186 -49 -61 -143 -155 -210 -212 -128 -108 -406 -267 -343 -195 29 32 107
176 142 262 15 36 31 74 36 85 16 35 67 198 80 257 9 37 19 58 29 60 9 2 48
-2 86 -8 39 -7 93 -15 120 -19z"/>
<path d="M83 1450 l2 -1365 1365 0 1365 0 1 330 c1 182 -1 335 -3 340 -2 8
-320 11 -1019 10 -666 0 -1018 3 -1023 10 -4 6 -7 466 -6 1023 0 679 -3 1012
-10 1013 -5 1 -159 3 -342 3 l-331 2 1 -1366z"/>
<path d="M6236 2810 c-2 -3 -2 -459 -2 -1015 1 -555 0 -1014 -1 -1020 -2 -7
-351 -10 -1023 -9 -710 0 -1020 -3 -1023 -10 -2 -6 -3 -159 -3 -341 l1 -330
1366 -1 1367 -2 -1 1364 c0 750 -3 1365 -6 1365 -19 5 -673 4 -675 -1z"/>
</g>
</svg>
